<?xml version="1.0" encoding="UTF-8"?>
<svg version="1.1" xmlns="http://www.w3.org/2000/svg" width="1032" height="1032">
<path d="M0 0 C1.44218143 -0.00258918 2.88436215 -0.00560387 4.3265419 -0.0090034 C8.26292011 -0.01701242 12.19928003 -0.01885955 16.13566542 -0.01960087 C20.39233856 -0.02146226 24.64900244 -0.0290152 28.90567017 -0.03573608 C38.20405449 -0.0492789 47.50243448 -0.05533847 56.80082703 -0.05974674 C62.61921275 -0.06251737 68.43759683 -0.06675632 74.25598145 -0.07125092 C90.39912817 -0.08344082 106.54227358 -0.09373904 122.6854248 -0.09712601 C124.23330578 -0.09745536 124.23330578 -0.09745536 125.81245708 -0.09779136 C126.84671227 -0.09800964 127.88096746 -0.09822791 128.94656372 -0.09845281 C131.04201253 -0.09889626 133.13746135 -0.09934282 135.23291016 -0.09979248 C136.27230366 -0.10001391 137.31169716 -0.10023534 138.38258743 -0.10046348 C155.1895698 -0.10440368 171.99650861 -0.12183513 188.80347419 -0.145152 C206.10331436 -0.16895661 223.40313278 -0.18133207 240.70298958 -0.18249393 C250.3980662 -0.18340586 260.09308612 -0.1890351 269.78814697 -0.20731354 C278.05127876 -0.22283838 286.31433633 -0.22776316 294.57747996 -0.21957543 C298.7813604 -0.2157115 302.98509201 -0.21638515 307.1889534 -0.23063278 C394.19988371 -0.50800585 478.26882705 28.70684838 543.49560547 87.14044189 C544.47400391 88.00798096 545.45240234 88.87552002 546.46044922 89.76934814 C557.7788693 99.96352248 569.01889236 110.52741104 578.44091797 122.52716064 C580.63659349 125.31975936 582.93504624 128.0048288 585.24560547 130.70294189 C627.9139877 182.11538397 653.18804866 247.04904472 660.49560547 313.14044189 C660.6193105 314.22883425 660.6193105 314.22883425 660.74551463 315.33921432 C661.57153154 323.33941496 661.64158544 331.29232269 661.63604736 339.32818604 C661.63863613 340.84461384 661.6416507 342.36104096 661.64505076 343.87746716 C661.65306467 348.01907351 661.65490719 352.16066247 661.65564823 356.30227566 C661.65750875 360.77980952 661.66506125 365.25733457 661.67178345 369.73486328 C661.68532961 379.51670333 661.69138631 389.29853925 661.69579411 399.08038712 C661.69856409 405.20029028 661.70280291 411.32019189 661.70729828 417.44009399 C661.71948847 434.4170573 661.72978673 451.39401936 661.73317337 468.37098694 C661.73339294 469.45632459 661.7336125 470.54166225 661.73383872 471.65988892 C661.734057 472.74769318 661.73427528 473.83549743 661.73450017 474.95626545 C661.73494362 477.16023572 661.73539018 479.364206 661.73583984 481.56817627 C661.73606127 482.66140084 661.7362827 483.7546254 661.73651084 484.88097799 C661.74045158 502.56094043 661.75788456 520.24086148 661.78119937 537.92080796 C661.80499732 556.11561787 661.81737913 574.3104071 661.81854129 592.50523281 C661.81945357 602.70333042 661.82509196 612.90137415 661.8433609 623.09945679 C661.85887665 631.79078183 661.86381572 640.48203634 661.8556228 649.17337263 C661.85175578 653.59597907 661.85244837 658.01844402 661.86668015 662.44103241 C662.1318227 750.03302318 633.39514025 834.3935543 574.49560547 900.14044189 C573.62806641 901.11884033 572.76052734 902.09723877 571.86669922 903.10528564 C561.67252489 914.42370573 551.10863632 925.66372878 539.10888672 935.08575439 C536.316288 937.28142992 533.63121856 939.57988266 530.93310547 941.89044189 C479.52066339 984.55882413 414.58700264 1009.83288509 348.49560547 1017.14044189 C347.39532123 1017.26414693 347.39532123 1017.26414693 346.27280903 1017.39035106 C338.5023637 1018.18683445 330.79768079 1018.28601144 322.99121094 1018.28088379 C321.54902951 1018.28347297 320.10684879 1018.28648766 318.66466904 1018.28988719 C314.72829083 1018.29789621 310.79193091 1018.29974334 306.85554552 1018.30048466 C302.59887238 1018.30234605 298.3422085 1018.30989899 294.08554077 1018.31661987 C284.78715645 1018.33016269 275.48877646 1018.33622225 266.19038391 1018.34063053 C260.37199819 1018.34340116 254.5536141 1018.34764011 248.73522949 1018.3521347 C232.59208277 1018.36432461 216.44893736 1018.37462283 200.30578613 1018.3780098 C198.75790515 1018.37833915 198.75790515 1018.37833915 197.17875385 1018.37867515 C196.14449866 1018.37889343 195.11024347 1018.3791117 194.04464722 1018.3793366 C191.9491984 1018.37978005 189.85374959 1018.38022661 187.75830078 1018.38067627 C186.71890728 1018.3808977 185.67951378 1018.38111913 184.6086235 1018.38134727 C167.80164113 1018.38528746 150.99470233 1018.40271891 134.18773675 1018.42603579 C116.88789657 1018.4498404 99.58807816 1018.46221586 82.28822136 1018.46337771 C72.59314474 1018.46428965 62.89812482 1018.46991889 53.20306396 1018.48819733 C44.93993218 1018.50372217 36.6768746 1018.50864695 28.41373098 1018.50045922 C24.20985054 1018.49659529 20.00611893 1018.49726894 15.80225754 1018.51151657 C-71.20867277 1018.78888964 -155.27761611 989.57403541 -220.50439453 931.14044189 C-221.48279297 930.27290283 -222.46119141 929.40536377 -223.46923828 928.51153564 C-234.78765837 918.31736131 -246.02768142 907.75347274 -255.44970703 895.75372314 C-257.64538256 892.96112442 -259.9438353 890.27605499 -262.25439453 887.57794189 C-304.92277677 836.16549982 -330.19683773 771.23183906 -337.50439453 705.14044189 C-337.58686455 704.41484699 -337.66933458 703.68925209 -337.75430369 702.94166946 C-338.5803206 694.94146883 -338.6503745 686.9885611 -338.64483643 678.95269775 C-338.64742519 677.43626995 -338.65043976 675.91984283 -338.65383983 674.40341663 C-338.66185373 670.26181028 -338.66369625 666.12022132 -338.66443729 661.97860813 C-338.66629781 657.50107427 -338.67385032 653.02354922 -338.68057251 648.54602051 C-338.69411867 638.76418046 -338.70017537 628.98234454 -338.70458317 619.20049667 C-338.70735315 613.08059351 -338.71159198 606.9606919 -338.71608734 600.84078979 C-338.72827753 583.86382649 -338.73857579 566.88686443 -338.74196243 549.90989685 C-338.742182 548.8245592 -338.74240157 547.73922154 -338.74262778 546.62099487 C-338.74284606 545.53319061 -338.74306434 544.44538636 -338.74328923 543.32461834 C-338.74373268 541.12064807 -338.74417925 538.91667779 -338.74462891 536.71270752 C-338.74485034 535.61948295 -338.74507177 534.52625839 -338.74529991 533.3999058 C-338.74924064 515.71994336 -338.76667362 498.04002231 -338.78998843 480.36007583 C-338.81378638 462.16526592 -338.82616819 443.97047669 -338.82733035 425.77565098 C-338.82824264 415.57755337 -338.83388102 405.37950964 -338.85214996 395.181427 C-338.86766571 386.49010196 -338.87260478 377.79884745 -338.86441186 369.10751116 C-338.86054485 364.68490472 -338.86123744 360.26243977 -338.87546921 355.83985138 C-339.14061176 268.24786061 -310.40392931 183.88732949 -251.50439453 118.14044189 C-250.63685547 117.16204346 -249.76931641 116.18364502 -248.87548828 115.17559814 C-238.68131395 103.85717806 -228.11742538 92.61715501 -216.11767578 83.19512939 C-213.32507706 80.99945387 -210.64000763 78.70100113 -207.94189453 76.39044189 C-156.52945245 33.72205966 -91.5957917 8.4479987 -25.50439453 1.14044189 C-24.40411029 1.01673686 -24.40411029 1.01673686 -23.28159809 0.89053273 C-15.51115277 0.09404934 -7.80646985 -0.00512765 0 0 Z " fill="#000000" transform="translate(354.50439453125,6.85955810546875)"/>
<path d="M0 0 C8.91 0 17.82 0 27 0 C30.68179123 12.66969334 33.70518115 25.38152992 36.51953125 38.26953125 C39.3177408 59.42052171 39.3177408 59.42052171 47 78 C51.83299321 60.78832092 56.46467132 43.53808334 60.85327148 26.20776367 C63.08345955 17.42276969 65.46926072 8.70369117 68 0 C75.92 0 83.84 0 92 0 C93.0828125 4.393125 93.0828125 4.393125 94.1875 8.875 C95.81936914 15.44630665 97.52371698 21.98719092 99.375 28.5 C101.95934946 37.61158226 104.2343095 46.79726219 106.50146484 55.9921875 C108.05604346 62.28550747 109.67342822 68.54640154 111.46240234 74.77758789 C112 77 112 77 112 80 C112.66 80 113.32 80 114 80 C114.10957031 79.09121094 114.21914063 78.18242188 114.33203125 77.24609375 C115.11617685 71.78170743 116.43124776 66.43388302 117.6875 61.0625 C117.95296631 59.91950439 118.21843262 58.77650879 118.49194336 57.59887695 C120.5116979 48.9573277 122.63180101 40.34330515 124.80810547 31.73999023 C126.76754138 23.98577839 128.63275856 16.2118026 130.43969727 8.4206543 C130.63104248 7.6037915 130.8223877 6.78692871 131.01953125 5.9453125 C131.26860229 4.87047607 131.26860229 4.87047607 131.52270508 3.77392578 C132 2 132 2 133 0 C141.58 0 150.16 0 159 0 C157.7110052 6.44497399 156.36891212 12.6444626 154.55737305 18.92773438 C154.32127319 19.75859558 154.08517334 20.58945679 153.84191895 21.44549561 C153.06884853 24.16263957 152.29030455 26.87818184 151.51171875 29.59375 C150.96569034 31.50921577 150.42002746 33.42478578 149.87471008 35.3404541 C148.44157323 40.37158401 147.00386804 45.40139664 145.56506348 50.4309082 C143.83209276 56.49160506 142.10415399 62.55373789 140.37582874 68.6157608 C139.02763368 73.34431976 137.67863481 78.07264307 136.326828 82.8001709 C133.16818938 93.85338871 130.0643402 104.9202329 127 116 C118.75 116 110.5 116 102 116 C94.98417722 93.19857595 94.98417722 93.19857595 92.09765625 82.08984375 C90.6408246 76.5743902 89.03225934 71.10180475 87.4375 65.625 C86.99760742 64.10821655 86.99760742 64.10821655 86.54882812 62.56079102 C85.00470497 57.27966326 83.38509914 52.04826464 81.55371094 46.85913086 C80.85865136 44.52541009 80.7660359 42.41762904 81 40 C80.34 40 79.68 40 79 40 C78.68977905 41.42530029 78.68977905 41.42530029 78.37329102 42.87939453 C75.50102852 55.72910106 71.75358764 68.27904896 67.9375 80.875 C66.99520581 83.99966597 66.05438512 87.12476795 65.11488342 90.25027466 C64.53576267 92.17538848 63.95488043 94.09997375 63.37181091 96.02389526 C61.68470053 101.61452529 60.11410806 107.22326528 58.6408844 112.8742981 C58 115 58 115 57 116 C55.21928754 116.08726223 53.4351686 116.10699041 51.65234375 116.09765625 C50.57275391 116.09443359 49.49316406 116.09121094 48.38085938 116.08789062 C47.24455078 116.07951172 46.10824219 116.07113281 44.9375 116.0625 C43.79732422 116.05798828 42.65714844 116.05347656 41.48242188 116.04882812 C38.65489649 116.03699747 35.8274736 116.0205141 33 116 C28.69572814 101.0235938 24.39296197 86.04675579 20.09200287 71.06939793 C18.09509472 64.11563854 16.09768844 57.16202295 14.09912109 50.20874023 C12.35778751 44.15040341 10.61737667 38.09180243 8.87808752 32.03287834 C7.95656226 28.82280953 7.0345658 25.61287736 6.11146545 22.40326118 C5.08285411 18.82591231 4.05587442 15.24809896 3.02929688 11.67016602 C2.7207225 10.59842636 2.41214813 9.52668671 2.09422302 8.42247009 C1.81655594 7.45346771 1.53888885 6.48446533 1.25280762 5.48609924 C1.00945427 4.63897149 0.76610092 3.79184374 0.51537323 2.91904545 C0 1 0 1 0 0 Z " fill="#FCFCFC" transform="translate(224,465)"/>
<path d="M0 0 C7.92 0 15.84 0 24 0 C24 38.28 24 76.56 24 116 C16.08 116 8.16 116 0 116 C-0.33 111.71 -0.66 107.42 -1 103 C-1.825 104.216875 -2.65 105.43375 -3.5 106.6875 C-7.18602675 111.63730735 -11.56083637 114.28041818 -17 117 C-28.91782767 117.86182638 -37.66680615 117.66492226 -47.38671875 110.15625 C-55.20211941 103.23219256 -59.84815336 93.36661972 -61 83 C-62.36827054 58.75336952 -62.36827054 58.75336952 -57 48 C-56.59910156 47.12472656 -56.19820312 46.24945313 -55.78515625 45.34765625 C-51.73352963 37.53799915 -45.24573431 32.18572263 -37.140625 28.80859375 C-29.3479139 26.80226141 -19.88006028 26.62207376 -12.4375 29.9375 C-8 33 -8 33 -1 42 C-0.67 28.14 -0.34 14.28 0 0 Z " fill="#FCFCFC" transform="translate(602,465)"/>
<path d="M0 0 C1.3770813 0.00519653 1.3770813 0.00519653 2.78198242 0.01049805 C10.1353435 0.12752595 16.71747189 1.05717029 23.75 3.3125 C24.98363281 3.70695312 24.98363281 3.70695312 26.2421875 4.109375 C29.2691748 5.16505029 31.4607165 6.0232165 33.75 8.3125 C33.5 11.375 33.5 11.375 32.75 14.3125 C30.23681235 15.56909382 28.00873195 15.46766162 25.2409668 15.55151367 C6.48308629 16.16662665 -10.26057668 22.52876562 -23.76318359 35.72363281 C-34.8481769 47.56946802 -40.42565331 63.04577867 -40.4375 79.0625 C-40.44974609 79.9184375 -40.46199219 80.774375 -40.47460938 81.65625 C-40.50810101 96.39257057 -35.33274702 109.77111229 -26.25 121.3125 C-25.32767578 122.55 -25.32767578 122.55 -24.38671875 123.8125 C-14.80906401 135.01853114 0.2815937 142.30806084 14.75 144.3125 C18.2638874 144.55417756 21.78255594 144.72001792 25.30395508 144.79516602 C28.23424529 144.90615375 30.2807549 144.98449303 32.72265625 146.69140625 C33.75 148.3125 33.75 148.3125 33.75 150.8125 C32.40777352 154.16806621 30.94197906 154.66880426 27.75 156.3125 C8.17407899 163.34759661 -13.84078374 162.26445235 -32.66577148 153.52636719 C-39.45448015 150.18330391 -45.64697514 146.43867168 -51.25 141.3125 C-52.20390625 140.46171875 -53.1578125 139.6109375 -54.140625 138.734375 C-69.89711025 124.17900092 -78.13712277 105.19802683 -79.46875 83.796875 C-80.05153145 60.58274714 -72.05058345 40.36312961 -56.25 23.3125 C-45.79031212 13.33705693 -33.25359546 5.98140569 -19.25 2.3125 C-18.59112793 2.13662354 -17.93225586 1.96074707 -17.25341797 1.77954102 C-11.46173725 0.34596299 -5.95451956 -0.03673937 0 0 Z " fill="#FCFCFC" transform="translate(746.25,449.6875)"/>
<path d="M0 0 C10.0836287 6.86911329 15.40085839 16.98866694 17.74609375 28.71484375 C17.74609375 34.32484375 17.74609375 39.93484375 17.74609375 45.71484375 C-1.72390625 45.71484375 -21.19390625 45.71484375 -41.25390625 45.71484375 C-39.70704121 55.9428176 -39.70704121 55.9428176 -33.61328125 62.8203125 C-29.66502372 65.04694611 -27.25579627 65.22097012 -22.75390625 65.15234375 C-21.48546875 65.15105469 -20.21703125 65.14976562 -18.91015625 65.1484375 C-14.951534 64.6789855 -12.59936118 63.86213716 -9.25390625 61.71484375 C-8.65578125 60.83570313 -8.05765625 59.9565625 -7.44140625 59.05078125 C-4.95975575 56.40073304 -4.51570921 56.35402477 -1.06640625 56.19140625 C0.53834634 56.21523921 2.14288359 56.26557363 3.74609375 56.33984375 C4.55304688 56.35402344 5.36 56.36820313 6.19140625 56.3828125 C9.87505392 56.4739919 13.18311407 56.72501597 16.74609375 57.71484375 C16.18803158 65.15567275 12.35608324 70.45689316 7.05859375 75.46484375 C2.6932848 79.07382798 -1.89842181 80.995906 -7.25390625 82.71484375 C-8.49140625 83.12734375 -9.72890625 83.53984375 -11.00390625 83.96484375 C-22.91937345 86.63141 -35.82968904 84.94764588 -46.50390625 79.08984375 C-56.44965388 72.57641673 -62.28573367 63.55281618 -64.8671875 51.9609375 C-66.67683867 36.77083528 -65.92190445 22.70390374 -57.25390625 9.71484375 C-42.91027398 -6.95478294 -19.26479428 -10.9846054 0 0 Z " fill="#F9F9F9" transform="translate(449.25390625,498.28515625)"/>
<path d="M0 0 C1.9375 0.22583008 1.9375 0.22583008 4 1 C5.51193392 3.56024748 6.77866544 5.99436188 8 8.6875 C8.99027503 10.81310987 9.99021592 12.92949323 11.03222656 15.03027344 C11.89607108 16.78847161 12.69494257 18.57825114 13.484375 20.37109375 C17.56302662 24.63341136 22.57329851 24.65718044 28.25 25.375 C29.37664062 25.53871094 30.50328125 25.70242188 31.6640625 25.87109375 C34.44027262 26.27105622 37.21757867 26.6463239 40 27 C40.72851562 28.76293945 40.72851562 28.76293945 41 31 C39.53710938 32.87182617 39.53710938 32.87182617 37.34375 34.79296875 C36.56902344 35.50646484 35.79429687 36.21996094 34.99609375 36.95507812 C33.34170074 38.43471131 31.67767866 39.90365309 30.00390625 41.36132812 C25.64809403 45.17676968 25.64809403 45.17676968 23.65405273 50.37695312 C23.89806702 52.6899302 24.34896815 54.7700133 25 57 C25.17660156 57.93070313 25.35320313 58.86140625 25.53515625 59.8203125 C25.70917969 60.58085938 25.88320313 61.34140625 26.0625 62.125 C26.91521206 66.20401816 27.2655302 69.84002692 27 74 C26 75 26 75 23.96484375 75.34375 C18.83993228 74.74955737 14.72878256 71.76003859 10.32617188 69.19921875 C4.52920844 65.94177973 4.52920844 65.94177973 -2 66 C-5.76689648 67.67365879 -9.26489751 69.79701599 -12.81054688 71.88867188 C-18.39202287 75.04471574 -18.39202287 75.04471574 -22.02734375 74.77734375 C-22.67832031 74.52082031 -23.32929687 74.26429688 -24 74 C-23.27119996 61.41860977 -23.27119996 61.41860977 -21.9375 56.5 C-21.08119922 53.30314377 -20.62424128 51.24917091 -21 48 C-22.55683095 45.8364975 -22.55683095 45.8364975 -24.75390625 43.93359375 C-25.52541016 43.20076172 -26.29691406 42.46792969 -27.09179688 41.71289062 C-28.31479492 40.58657227 -28.31479492 40.58657227 -29.5625 39.4375 C-31.17905043 37.94813686 -32.78515245 36.44732644 -34.37890625 34.93359375 C-35.0963501 34.27415771 -35.81379395 33.61472168 -36.55297852 32.93530273 C-38 31 -38 31 -37.78881836 28.81665039 C-37 27 -37 27 -36 26 C-34.35368433 25.79898763 -32.70076648 25.65145752 -31.046875 25.52734375 C-30.03496094 25.43130859 -29.02304687 25.33527344 -27.98046875 25.23632812 C-25.8446689 25.03876018 -23.70636831 24.8664306 -21.56640625 24.72070312 C-15.9258264 24.25119623 -15.9258264 24.25119623 -11.28222656 21.35571289 C-9.96626497 19.2908158 -8.96536079 17.24856587 -8 15 C-7.34297483 13.72816878 -6.68170368 12.45851947 -6.015625 11.19140625 C-5.42284447 9.98384243 -4.83424407 8.77421696 -4.25 7.5625 C-1.11745473 1.11745473 -1.11745473 1.11745473 0 0 Z " fill="#FBFBFB" transform="translate(786,491)"/>
<path d="M0 0 C3.6196875 0.0309375 3.6196875 0.0309375 7.3125 0.0625 C7.3125 7.3225 7.3125 14.5825 7.3125 22.0625 C-1.25 21.75 -1.25 21.75 -3.90454102 21.61206055 C-8.98195184 21.52318436 -12.10550537 22.37032116 -16.19506836 25.39379883 C-21.60530706 31.44303513 -21.15729952 37.99053142 -21.19921875 45.6796875 C-21.21716995 46.89198029 -21.23512115 48.10427307 -21.25361633 49.353302 C-21.30767724 53.21466626 -21.3416027 57.07590716 -21.375 60.9375 C-21.40817666 63.55991298 -21.44266664 66.18230969 -21.47851562 68.8046875 C-21.5658667 75.2239757 -21.62597519 81.64270464 -21.6875 88.0625 C-29.6075 88.0625 -37.5275 88.0625 -45.6875 88.0625 C-45.6875 59.3525 -45.6875 30.6425 -45.6875 1.0625 C-38.0975 1.0625 -30.5075 1.0625 -22.6875 1.0625 C-22.1925 7.9925 -22.1925 7.9925 -21.6875 15.0625 C-21.171875 13.86625 -20.65625 12.67 -20.125 11.4375 C-17.8699925 6.90332421 -14.87966544 3.87348796 -10.6875 1.0625 C-7.06668537 -0.14443821 -3.7624281 -0.04532079 0 0 Z " fill="#FCFCFC" transform="translate(528.6875,492.9375)"/>
<path d="M0 0 C5.61305813 5.1967787 7.69980813 10.14039028 8.30078125 17.8671875 C8.3202099 19.20298943 8.32376252 20.53910426 8.3125 21.875 C8.30404053 22.92772095 8.30404053 22.92772095 8.29541016 24.00170898 C8.09920665 32.40252136 6.35543761 38.48006329 0.5234375 44.625 C-3.58282949 48.33116918 -8.16085111 48.5061615 -13.5 48.37109375 C-17.61717943 47.75994993 -20.23692862 46.07171233 -23 43 C-29.06331719 33.49833831 -29.06700698 22.95204838 -28 12 C-26.33315771 5.97585215 -23.49035598 1.23790225 -18 -2 C-11.96588923 -4.49687342 -5.2725437 -3.55323597 0 0 Z " fill="#020202" transform="translate(594,515)"/>
<path d="M0 0 C3.81494625 2.04401676 6.61224601 4.57366874 8.80078125 8.27734375 C9.29578125 12.23734375 9.29578125 12.23734375 9.80078125 16.27734375 C-2.07921875 16.27734375 -13.95921875 16.27734375 -26.19921875 16.27734375 C-25.06889384 8.36506938 -25.06889384 8.36506938 -21.88671875 4.96484375 C-20.99533203 3.98064453 -20.99533203 3.98064453 -20.0859375 2.9765625 C-14.63907589 -1.92899609 -6.84695867 -2.24988873 0 0 Z " fill="#020202" transform="translate(434.19921875,511.72265625)"/>
</svg>
